<svg width="20" height="18" viewBox="0 0 20 18" fill="none" xmlns="http://www.w3.org/2000/svg">
<path fill-rule="evenodd" clip-rule="evenodd" d="M18.2622 9.62586V9.62282C18.7617 9.10014 19.1546 8.4846 19.4183 7.81058C19.6972 7.09752 19.8257 6.33445 19.7955 5.56936C19.7652 4.80427 19.577 4.0537 19.2427 3.36487C18.9083 2.67604 18.435 2.06385 17.8526 1.56679C17.2702 1.06974 16.5912 0.698571 15.8584 0.476641C15.1256 0.254712 14.3548 0.186818 13.5944 0.277231C12.8341 0.367644 12.1007 0.614406 11.4404 1.002C10.8936 1.32291 10.4068 1.73462 10.0002 2.21855C9.5937 1.73462 9.10684 1.32291 8.5601 1.002C7.89976 0.614406 7.16636 0.367644 6.40603 0.277231C5.64569 0.186818 4.87488 0.254712 4.14205 0.476641C3.40923 0.698571 2.73026 1.06974 2.14784 1.56679C1.56541 2.06385 1.09214 2.67604 0.757788 3.36487C0.423433 4.0537 0.235228 4.80427 0.205008 5.56936C0.174788 6.33445 0.303209 7.09752 0.582192 7.81058C0.861176 8.52363 1.28471 9.17127 1.82611 9.71272L10.0002 17.8858L18.2622 9.62586Z" fill="#BB8C5F"/>
</svg>
