<svg width="20" height="18" viewBox="0 0 20 18" fill="none" xmlns="http://www.w3.org/2000/svg">
<path fill-rule="evenodd" clip-rule="evenodd" d="M18.2622 9.62586V9.62282C18.7617 9.10014 19.1546 8.4846 19.4183 7.81058C19.6973 7.09752 19.8257 6.33445 19.7955 5.56936C19.7652 4.80427 19.577 4.0537 19.2427 3.36487C18.9083 2.67604 18.435 2.06385 17.8526 1.56679C17.2702 1.06974 16.5912 0.698571 15.8584 0.476642C15.1256 0.254712 14.3548 0.186818 13.5944 0.277231C12.8341 0.367644 12.1007 0.614406 11.4404 1.002C10.8936 1.32291 10.4068 1.73461 10.0002 2.21855C9.5937 1.73461 9.10684 1.32291 8.5601 1.002C7.89976 0.614406 7.16636 0.367644 6.40603 0.277231C5.64569 0.186818 4.87488 0.254712 4.14206 0.476642C3.40923 0.698571 2.73026 1.06974 2.14784 1.56679C1.56542 2.06385 1.09214 2.67604 0.757789 3.36487C0.423434 4.0537 0.235228 4.80427 0.205008 5.56936C0.174788 6.33445 0.303208 7.09752 0.582192 7.81058C0.861175 8.52363 1.28471 9.17127 1.82611 9.71272L10.0002 17.8858L18.2622 9.62586ZM3.04423 8.66732L10.0002 15.6243L17.0441 8.57847C17.4422 8.18025 17.7506 7.70152 17.9485 7.17437C18.1465 6.64722 18.2294 6.08384 18.1918 5.522C18.1542 4.96017 17.9969 4.41287 17.7305 3.91679C17.4641 3.42072 17.0947 2.98735 16.647 2.64573C16.1994 2.30411 15.6839 2.06215 15.1351 1.93606C14.5863 1.80997 14.0169 1.80267 13.4651 1.91466C12.9132 2.02664 12.3917 2.25532 11.9355 2.58536C11.4792 2.91539 11.0989 3.33916 10.8198 3.82824L10.7335 3.97957H9.267L9.18066 3.82824C8.90161 3.33916 8.52121 2.91539 8.06498 2.58536C7.60875 2.25532 7.08722 2.02664 6.53538 1.91466C5.98354 1.80267 5.41413 1.80997 4.86534 1.93606C4.31654 2.06215 3.80105 2.30411 3.35343 2.64573C2.9058 2.98735 2.53639 3.42072 2.26996 3.91679C2.00353 4.41287 1.84624 4.96017 1.80864 5.522C1.77104 6.08384 1.854 6.64722 2.05195 7.17437C2.2499 7.70152 2.55828 8.18025 2.95639 8.57847L3.04423 8.66732Z" fill="#524336"/>
</svg>
